<svg width="287" height="50" viewBox="0 0 287 50" fill="none" xmlns="http://www.w3.org/2000/svg">
<path d="M73.7419 15.9077C73.9922 15.9077 74.1851 15.9539 74.3207 16.0465C74.4563 16.1287 74.5554 16.2829 74.6179 16.509C74.6909 16.7352 74.7274 17.0641 74.7274 17.4959C74.7274 17.9276 74.6909 18.2566 74.6179 18.4827C74.5554 18.7089 74.4563 18.8631 74.3207 18.9453C74.1851 19.0275 73.9922 19.0687 73.7419 19.0687H73.0693L67.5941 24.3267C68.1782 24.3575 68.71 24.5169 69.1897 24.8047C69.6695 25.0822 70.0866 25.4677 70.4412 25.9611C70.6811 26.3004 70.9001 26.655 71.0982 27.0251C71.2964 27.3849 71.5206 27.8269 71.7709 28.3512C72.1463 29.1118 72.407 29.6155 72.553 29.8623C72.7825 30.2426 73.0223 30.5356 73.2726 30.7412C73.5229 30.9468 73.8097 31.0495 74.133 31.0495H74.2894C74.5397 31.0495 74.7326 31.0958 74.8682 31.1883C75.0038 31.2706 75.1029 31.4248 75.1654 31.6509C75.2384 31.8771 75.2749 32.206 75.2749 32.6377C75.2749 33.0695 75.2384 33.3984 75.1654 33.6246C75.1029 33.8507 75.0038 34.0049 74.8682 34.0872C74.7326 34.1694 74.5397 34.2105 74.2894 34.2105H72.115C71.4789 34.2105 70.9366 34.0204 70.4881 33.64C70.0501 33.2494 69.6434 32.7097 69.268 32.021C69.0281 31.5789 68.7778 31.065 68.5171 30.479C68.3294 30.0884 68.1364 29.6978 67.9383 29.3072C67.7401 28.9165 67.5576 28.5927 67.3908 28.3357C67.1196 27.9348 66.8172 27.6213 66.4835 27.3951C66.1498 27.1587 65.8056 27.0405 65.451 27.0405C64.9922 27.0405 64.5802 27.2153 64.2152 27.5648L63.4174 28.3357V31.0495H65.2164C65.4667 31.0495 65.6596 31.0958 65.7952 31.1883C65.9308 31.2706 66.0298 31.4248 66.0924 31.6509C66.1654 31.8771 66.2019 32.206 66.2019 32.6377C66.2019 33.0695 66.1654 33.3984 66.0924 33.6246C66.0298 33.8507 65.9308 34.0049 65.7952 34.0872C65.6596 34.1694 65.4667 34.2105 65.2164 34.2105H57.8328C57.5825 34.2105 57.3896 34.1694 57.254 34.0872C57.1184 34.0049 57.0142 33.8507 56.9411 33.6246C56.8786 33.3984 56.8473 33.0695 56.8473 32.6377C56.8473 32.206 56.8786 31.8771 56.9411 31.6509C57.0142 31.4248 57.1184 31.2706 57.254 31.1883C57.3896 31.0958 57.5825 31.0495 57.8328 31.0495H59.5066V19.0687H57.8328C57.5825 19.0687 57.3896 19.0275 57.254 18.9453C57.1184 18.8631 57.0142 18.7089 56.9411 18.4827C56.8786 18.2566 56.8473 17.9276 56.8473 17.4959C56.8473 17.0641 56.8786 16.7352 56.9411 16.509C57.0142 16.2829 57.1184 16.1287 57.254 16.0465C57.3896 15.9539 57.5825 15.9077 57.8328 15.9077H64.1526C64.4029 15.9077 64.5959 15.9539 64.7314 16.0465C64.867 16.1287 64.9661 16.2829 65.0287 16.509C65.1017 16.7352 65.1382 17.0641 65.1382 17.4959C65.1382 17.9276 65.1017 18.2566 65.0287 18.4827C64.9661 18.7089 64.867 18.8631 64.7314 18.9453C64.5959 19.0275 64.4029 19.0687 64.1526 19.0687H63.4174V24.0029L68.4858 19.0687H67.6567C67.4064 19.0687 67.2135 19.0275 67.0779 18.9453C66.9423 18.8631 66.8381 18.7089 66.7651 18.4827C66.7025 18.2566 66.6712 17.9276 66.6712 17.4959C66.6712 17.0641 66.7025 16.7352 66.7651 16.509C66.8381 16.2829 66.9423 16.1287 67.0779 16.0465C67.2135 15.9539 67.4064 15.9077 67.6567 15.9077H73.7419Z" fill="#364F6B"/>
<path d="M85.0988 19.6238C86.684 19.6238 88.0346 19.963 89.1504 20.6414C90.2663 21.3096 91.1058 22.2451 91.669 23.4478C92.2426 24.6402 92.5294 26.0074 92.5294 27.5493C92.5294 27.8988 92.4511 28.1456 92.2947 28.2895C92.1487 28.4334 91.8984 28.5053 91.5438 28.5053H81.5009C81.6991 29.3277 82.1214 29.9599 82.768 30.4019C83.425 30.8337 84.2541 31.0495 85.2553 31.0495C86.8717 31.0495 88.6238 30.7669 90.5114 30.2015C90.6365 30.1604 90.7617 30.1398 90.8868 30.1398C91.1163 30.1398 91.3144 30.2426 91.4813 30.4482C91.6481 30.6538 91.7993 31.0033 91.9349 31.4967C92.0392 31.8771 92.0913 32.2009 92.0913 32.4681C92.0913 32.7354 92.0288 32.9461 91.9036 33.1003C91.7889 33.2442 91.596 33.3625 91.3248 33.455C90.282 33.7942 89.2182 34.0615 88.1336 34.2568C87.049 34.4521 85.9853 34.5498 84.9424 34.5498C83.3572 34.5498 81.9911 34.2311 80.8439 33.5937C79.6967 32.9564 78.8207 32.0775 78.2159 30.957C77.6214 29.8263 77.3242 28.5362 77.3242 27.0868C77.3242 25.6476 77.6371 24.3627 78.2628 23.2319C78.8885 22.1012 79.7906 21.2171 80.9691 20.5798C82.1475 19.9424 83.5241 19.6238 85.0988 19.6238ZM85.0988 23.124C83.1904 23.124 82.0119 23.9155 81.5635 25.4986H88.4465C88.2692 24.7481 87.8885 24.1674 87.3045 23.7562C86.731 23.3347 85.9957 23.124 85.0988 23.124Z" fill="#364F6B"/>
<path d="M112.083 19.963C112.334 19.963 112.527 20.0093 112.662 20.1018C112.798 20.184 112.897 20.3382 112.959 20.5644C113.032 20.7905 113.069 21.1194 113.069 21.5512C113.069 21.9829 113.032 22.3119 112.959 22.538C112.897 22.7642 112.798 22.9184 112.662 23.0006C112.527 23.0829 112.334 23.124 112.083 23.124H111.02L106.436 33.5475C106.28 33.9073 106.024 34.1643 105.67 34.3185C105.315 34.4727 104.773 34.5498 104.043 34.5498C103.313 34.5498 102.776 34.4727 102.431 34.3185C102.087 34.1643 101.837 33.9073 101.681 33.5475L97.1284 23.124H96.096C95.8457 23.124 95.6528 23.0829 95.5172 23.0006C95.3816 22.9184 95.2773 22.7642 95.2043 22.538C95.1418 22.3119 95.1105 21.9829 95.1105 21.5512C95.1105 21.1194 95.1418 20.7905 95.2043 20.5644C95.2773 20.3382 95.3816 20.184 95.5172 20.1018C95.6528 20.0093 95.8457 19.963 96.096 19.963H102.416C102.666 19.963 102.859 20.0093 102.995 20.1018C103.13 20.184 103.229 20.3382 103.292 20.5644C103.365 20.7905 103.401 21.1194 103.401 21.5512C103.401 21.9829 103.365 22.3119 103.292 22.538C103.229 22.7642 103.13 22.9184 102.995 23.0006C102.859 23.0829 102.666 23.124 102.416 23.124H101.368L104.137 29.9239L106.937 23.124H106.076C105.826 23.124 105.633 23.0829 105.498 23.0006C105.362 22.9184 105.258 22.7642 105.185 22.538C105.122 22.3119 105.091 21.9829 105.091 21.5512C105.091 21.1194 105.122 20.7905 105.185 20.5644C105.258 20.3382 105.362 20.184 105.498 20.1018C105.633 20.0093 105.826 19.963 106.076 19.963H112.083Z" fill="#364F6B"/>
<path d="M124.488 19.963C124.843 19.963 125.093 20.0401 125.239 20.1943C125.396 20.3382 125.474 20.5849 125.474 20.9344V31.0495H129.87C130.12 31.0495 130.313 31.0958 130.448 31.1883C130.584 31.2706 130.683 31.4248 130.746 31.6509C130.819 31.8771 130.855 32.206 130.855 32.6377C130.855 33.0695 130.819 33.3984 130.746 33.6246C130.683 33.8507 130.584 34.0049 130.448 34.0872C130.313 34.1694 130.12 34.2105 129.87 34.2105H117.292C117.042 34.2105 116.849 34.1694 116.714 34.0872C116.578 34.0049 116.474 33.8507 116.401 33.6246C116.338 33.3984 116.307 33.0695 116.307 32.6377C116.307 32.206 116.338 31.8771 116.401 31.6509C116.474 31.4248 116.578 31.2706 116.714 31.1883C116.849 31.0958 117.042 31.0495 117.292 31.0495H121.563V23.124H118.231C117.981 23.124 117.788 23.0829 117.652 23.0006C117.517 22.9184 117.412 22.7642 117.339 22.538C117.277 22.3119 117.246 21.9829 117.246 21.5512C117.246 21.1194 117.277 20.7905 117.339 20.5644C117.412 20.3382 117.517 20.184 117.652 20.1018C117.788 20.0093 117.981 19.963 118.231 19.963H124.488ZM123.472 13.1939C124.212 13.1939 124.728 13.271 125.02 13.4252C125.323 13.5691 125.474 13.8158 125.474 14.1653V16.6941C125.474 17.0436 125.333 17.2954 125.051 17.4496C124.78 17.5935 124.28 17.6655 123.55 17.6655C122.82 17.6655 122.304 17.5935 122.001 17.4496C121.709 17.2954 121.563 17.0436 121.563 16.6941V14.1653C121.563 13.8055 121.699 13.5537 121.97 13.4097C122.241 13.2658 122.742 13.1939 123.472 13.1939Z" fill="#364F6B"/>
<path d="M144.746 19.6238C145.695 19.6238 146.524 19.8294 147.234 20.2405C147.953 20.6517 148.506 21.2377 148.892 21.9984C149.278 22.7488 149.47 23.6328 149.47 24.6505V31.0495H150.675C150.925 31.0495 151.118 31.0958 151.254 31.1883C151.389 31.2706 151.488 31.4248 151.551 31.6509C151.624 31.8771 151.661 32.206 151.661 32.6377C151.661 33.0695 151.624 33.3984 151.551 33.6246C151.488 33.8507 151.389 34.0049 151.254 34.0872C151.118 34.1694 150.925 34.2105 150.675 34.2105H144.824C144.574 34.2105 144.381 34.1694 144.246 34.0872C144.11 34.0049 144.006 33.8507 143.933 33.6246C143.87 33.3984 143.839 33.0695 143.839 32.6377C143.839 32.206 143.87 31.8771 143.933 31.6509C144.006 31.4248 144.11 31.2706 144.246 31.1883C144.381 31.0958 144.574 31.0495 144.824 31.0495H145.56V25.5602C145.56 24.7584 145.419 24.1519 145.137 23.7407C144.856 23.3296 144.386 23.124 143.729 23.124C143.125 23.124 142.551 23.3758 142.009 23.8795C141.466 24.3729 141.028 25.036 140.695 25.8686C140.371 26.7013 140.21 27.5905 140.21 28.5362V31.0495H140.945C141.195 31.0495 141.388 31.0958 141.524 31.1883C141.659 31.2706 141.758 31.4248 141.821 31.6509C141.894 31.8771 141.93 32.206 141.93 32.6377C141.93 33.0695 141.894 33.3984 141.821 33.6246C141.758 33.8507 141.659 34.0049 141.524 34.0872C141.388 34.1694 141.195 34.2105 140.945 34.2105H135.094C134.844 34.2105 134.651 34.1694 134.516 34.0872C134.38 34.0049 134.276 33.8507 134.203 33.6246C134.14 33.3984 134.109 33.0695 134.109 32.6377C134.109 32.206 134.14 31.8771 134.203 31.6509C134.276 31.4248 134.38 31.2706 134.516 31.1883C134.651 31.0958 134.844 31.0495 135.094 31.0495H136.299V23.124H134.782C134.531 23.124 134.338 23.0829 134.203 23.0006C134.067 22.9184 133.963 22.7642 133.89 22.538C133.827 22.3119 133.796 21.9829 133.796 21.5512C133.796 21.1194 133.827 20.7905 133.89 20.5644C133.963 20.3382 134.067 20.184 134.203 20.1018C134.338 20.0093 134.531 19.963 134.782 19.963H138.598C138.953 19.963 139.203 20.0401 139.349 20.1943C139.506 20.3382 139.584 20.5849 139.584 20.9344V23.1702C140.961 20.8059 142.681 19.6238 144.746 19.6238Z" fill="#364F6B"/>
<path d="M189.001 15.9077C189.251 15.9077 189.444 15.9539 189.58 16.0465C189.715 16.1287 189.814 16.2829 189.877 16.509C189.95 16.7352 189.986 17.0641 189.986 17.4959C189.986 17.9276 189.95 18.2566 189.877 18.4827C189.814 18.7089 189.715 18.8631 189.58 18.9453C189.444 19.0275 189.251 19.0687 189.001 19.0687H188.328L182.853 24.3267C183.437 24.3575 183.969 24.5169 184.449 24.8047C184.928 25.0822 185.345 25.4677 185.7 25.9611C185.94 26.3004 186.159 26.655 186.357 27.0251C186.555 27.3849 186.779 27.8269 187.03 28.3512C187.405 29.1118 187.666 29.6155 187.812 29.8623C188.041 30.2426 188.281 30.5356 188.531 30.7412C188.782 30.9468 189.069 31.0495 189.392 31.0495H189.548C189.799 31.0495 189.991 31.0958 190.127 31.1883C190.263 31.2706 190.362 31.4248 190.424 31.6509C190.497 31.8771 190.534 32.206 190.534 32.6377C190.534 33.0695 190.497 33.3984 190.424 33.6246C190.362 33.8507 190.263 34.0049 190.127 34.0872C189.991 34.1694 189.799 34.2105 189.548 34.2105H187.374C186.738 34.2105 186.195 34.0204 185.747 33.64C185.309 33.2494 184.902 32.7097 184.527 32.021C184.287 31.5789 184.037 31.065 183.776 30.479C183.588 30.0884 183.395 29.6978 183.197 29.3072C182.999 28.9165 182.816 28.5927 182.65 28.3357C182.378 27.9348 182.076 27.6213 181.742 27.3951C181.409 27.1587 181.064 27.0405 180.71 27.0405C180.251 27.0405 179.839 27.2153 179.474 27.5648L178.676 28.3357V31.0495H180.475C180.726 31.0495 180.918 31.0958 181.054 31.1883C181.19 31.2706 181.289 31.4248 181.351 31.6509C181.424 31.8771 181.461 32.206 181.461 32.6377C181.461 33.0695 181.424 33.3984 181.351 33.6246C181.289 33.8507 181.19 34.0049 181.054 34.0872C180.918 34.1694 180.726 34.2105 180.475 34.2105H173.092C172.841 34.2105 172.648 34.1694 172.513 34.0872C172.377 34.0049 172.273 33.8507 172.2 33.6246C172.137 33.3984 172.106 33.0695 172.106 32.6377C172.106 32.206 172.137 31.8771 172.2 31.6509C172.273 31.4248 172.377 31.2706 172.513 31.1883C172.648 31.0958 172.841 31.0495 173.092 31.0495H174.765V19.0687H173.092C172.841 19.0687 172.648 19.0275 172.513 18.9453C172.377 18.8631 172.273 18.7089 172.2 18.4827C172.137 18.2566 172.106 17.9276 172.106 17.4959C172.106 17.0641 172.137 16.7352 172.2 16.509C172.273 16.2829 172.377 16.1287 172.513 16.0465C172.648 15.9539 172.841 15.9077 173.092 15.9077H179.412C179.662 15.9077 179.855 15.9539 179.99 16.0465C180.126 16.1287 180.225 16.2829 180.288 16.509C180.361 16.7352 180.397 17.0641 180.397 17.4959C180.397 17.9276 180.361 18.2566 180.288 18.4827C180.225 18.7089 180.126 18.8631 179.99 18.9453C179.855 19.0275 179.662 19.0687 179.412 19.0687H178.676V24.0029L183.745 19.0687H182.916C182.665 19.0687 182.472 19.0275 182.337 18.9453C182.201 18.8631 182.097 18.7089 182.024 18.4827C181.961 18.2566 181.93 17.9276 181.93 17.4959C181.93 17.0641 181.961 16.7352 182.024 16.509C182.097 16.2829 182.201 16.1287 182.337 16.0465C182.472 15.9539 182.665 15.9077 182.916 15.9077H189.001Z" fill="#364F6B"/>
<path d="M205.692 19.963C206.047 19.963 206.297 20.0401 206.443 20.1943C206.599 20.3382 206.678 20.5849 206.678 20.9344V31.0495H207.882C208.132 31.0495 208.325 31.0907 208.461 31.1729C208.596 31.2551 208.696 31.4093 208.758 31.6355C208.831 31.8616 208.868 32.1906 208.868 32.6223C208.868 33.0541 208.831 33.383 208.758 33.6092C208.696 33.8353 208.596 33.9947 208.461 34.0872C208.325 34.1694 208.132 34.2105 207.882 34.2105H204.378C204.023 34.2105 203.768 34.1386 203.611 33.9947C203.465 33.8405 203.392 33.5886 203.392 33.2391V31.0033C202.016 33.3676 200.295 34.5498 198.23 34.5498C197.281 34.5498 196.447 34.3442 195.727 33.933C195.018 33.5218 194.471 32.941 194.085 32.1906C193.699 31.4299 193.506 30.5407 193.506 29.523V23.124H192.301C192.051 23.124 191.858 23.0829 191.723 23.0006C191.587 22.9081 191.483 22.7488 191.41 22.5226C191.347 22.2965 191.316 21.9675 191.316 21.5358C191.316 21.104 191.347 20.7751 191.41 20.5489C191.483 20.3228 191.587 20.1686 191.723 20.0863C191.858 20.0041 192.051 19.963 192.301 19.963H196.431C196.786 19.963 197.036 20.0401 197.182 20.1943C197.339 20.3382 197.417 20.5849 197.417 20.9344V28.6133C197.417 29.4151 197.558 30.0216 197.839 30.4328C198.121 30.844 198.59 31.0495 199.247 31.0495C199.852 31.0495 200.425 30.8028 200.968 30.3094C201.51 29.8057 201.943 29.1375 202.266 28.3049C202.6 27.4722 202.767 26.5831 202.767 25.6373V23.124H201.093C200.843 23.124 200.65 23.0829 200.514 23.0006C200.379 22.9081 200.274 22.7488 200.201 22.5226C200.139 22.2965 200.107 21.9675 200.107 21.5358C200.107 21.104 200.139 20.7751 200.201 20.5489C200.274 20.3228 200.379 20.1686 200.514 20.0863C200.65 20.0041 200.843 19.963 201.093 19.963H205.692Z" fill="#364F6B"/>
<path d="M224.245 19.6238C225.131 19.6238 225.966 19.9116 226.748 20.4873C227.207 20.8162 227.436 21.2479 227.436 21.7825C227.436 22.1217 227.342 22.5226 227.154 22.9852C226.967 23.4478 226.753 23.7973 226.513 24.0337C226.284 24.2701 226.039 24.3884 225.778 24.3884C225.632 24.3884 225.475 24.3472 225.309 24.265C224.725 23.9463 224.12 23.787 223.494 23.787C222.691 23.787 221.94 24.0389 221.241 24.5426C220.543 25.0463 219.979 25.7401 219.552 26.6242C219.135 27.5082 218.926 28.4951 218.926 29.5847V31.0495H223.416C223.666 31.0495 223.859 31.0958 223.995 31.1883C224.13 31.2706 224.229 31.4248 224.292 31.6509C224.365 31.8771 224.401 32.206 224.401 32.6377C224.401 33.0695 224.365 33.3984 224.292 33.6246C224.229 33.8507 224.13 34.0049 223.995 34.0872C223.859 34.1694 223.666 34.2105 223.416 34.2105H212.716C212.466 34.2105 212.273 34.1694 212.137 34.0872C212.001 34.0049 211.897 33.8507 211.824 33.6246C211.762 33.3984 211.73 33.0695 211.73 32.6377C211.73 32.206 211.762 31.8771 211.824 31.6509C211.897 31.4248 212.001 31.2706 212.137 31.1883C212.273 31.0958 212.466 31.0495 212.716 31.0495H215.015V23.124H213.185C212.935 23.124 212.742 23.0829 212.606 23.0006C212.471 22.9184 212.366 22.7642 212.293 22.538C212.231 22.3119 212.2 21.9829 212.2 21.5512C212.2 21.1194 212.231 20.7905 212.293 20.5644C212.366 20.3382 212.471 20.184 212.606 20.1018C212.742 20.0093 212.935 19.963 213.185 19.963H217.471C217.826 19.963 218.076 20.0401 218.222 20.1943C218.379 20.3382 218.457 20.5849 218.457 20.9344V24.2804C219.239 22.7899 220.136 21.6437 221.147 20.8419C222.169 20.0298 223.202 19.6238 224.245 19.6238Z" fill="#364F6B"/>
<path d="M243.126 19.6238C243.794 19.6238 244.268 19.7009 244.55 19.8551C244.831 19.999 244.972 20.2457 244.972 20.5952V23.8487C244.972 24.1982 244.857 24.45 244.628 24.6042C244.409 24.7481 244.044 24.8201 243.533 24.8201C242.98 24.8201 242.599 24.7122 242.391 24.4963C241.776 23.8487 241.072 23.3912 240.279 23.124C239.486 22.8464 238.569 22.7076 237.526 22.7076C236.911 22.7076 236.426 22.8156 236.071 23.0315C235.727 23.2473 235.555 23.5352 235.555 23.8949C235.555 24.3267 235.941 24.6351 236.712 24.8201C237.119 24.9229 237.813 25.0206 238.793 25.1131C239.763 25.2262 240.566 25.3392 241.202 25.4523C241.849 25.5654 242.459 25.735 243.032 25.9611C243.867 26.3004 244.518 26.7732 244.988 27.3797C245.457 27.9862 245.692 28.788 245.692 29.7852C245.692 30.7617 245.447 31.6098 244.956 32.3294C244.477 33.0387 243.767 33.5886 242.829 33.9792C241.901 34.3596 240.78 34.5498 239.466 34.5498C238.016 34.5498 236.671 34.1848 235.43 33.455V33.5783C235.43 33.9278 235.278 34.1745 234.976 34.3185C234.674 34.4727 234.189 34.5498 233.521 34.5498C232.854 34.5498 232.379 34.4727 232.098 34.3185C231.816 34.1745 231.675 33.9278 231.675 33.5783V30.1398C231.675 29.8006 231.795 29.5539 232.035 29.3997C232.285 29.2455 232.666 29.1684 233.177 29.1684C233.813 29.1684 234.246 29.3123 234.475 29.6001C234.997 30.2477 235.664 30.7206 236.478 31.0187C237.291 31.3168 238.183 31.4659 239.153 31.4659C240.821 31.4659 241.656 31.0393 241.656 30.1861C241.656 29.9291 241.536 29.7235 241.296 29.5693C241.066 29.4151 240.722 29.2866 240.263 29.1838C240.003 29.1324 239.398 29.0399 238.449 28.9062C237.396 28.7829 236.488 28.6441 235.727 28.4899C234.976 28.3255 234.293 28.0736 233.678 27.7344C232.238 26.9531 231.519 25.7196 231.519 24.0337C231.519 23.1394 231.764 22.3581 232.254 21.69C232.744 21.0218 233.417 20.513 234.272 20.1634C235.138 19.8037 236.108 19.6238 237.182 19.6238C238.756 19.6238 240.154 19.999 241.374 20.7494V20.5952C241.374 20.2457 241.499 19.999 241.75 19.8551C242.01 19.7009 242.469 19.6238 243.126 19.6238Z" fill="#364F6B"/>
<path d="M263.321 19.963C263.676 19.963 263.926 20.0401 264.072 20.1943C264.229 20.3382 264.307 20.5849 264.307 20.9344V31.0495H265.511C265.762 31.0495 265.955 31.0907 266.09 31.1729C266.226 31.2551 266.325 31.4093 266.388 31.6355C266.461 31.8616 266.497 32.1906 266.497 32.6223C266.497 33.0541 266.461 33.383 266.388 33.6092C266.325 33.8353 266.226 33.9947 266.09 34.0872C265.955 34.1694 265.762 34.2105 265.511 34.2105H262.007C261.653 34.2105 261.397 34.1386 261.241 33.9947C261.095 33.8405 261.022 33.5886 261.022 33.2391V31.0033C259.645 33.3676 257.925 34.5498 255.86 34.5498C254.911 34.5498 254.076 34.3442 253.357 33.933C252.648 33.5218 252.1 32.941 251.714 32.1906C251.328 31.4299 251.135 30.5407 251.135 29.523V23.124H249.931C249.681 23.124 249.488 23.0829 249.352 23.0006C249.217 22.9081 249.112 22.7488 249.039 22.5226C248.977 22.2965 248.945 21.9675 248.945 21.5358C248.945 21.104 248.977 20.7751 249.039 20.5489C249.112 20.3228 249.217 20.1686 249.352 20.0863C249.488 20.0041 249.681 19.963 249.931 19.963H254.061C254.415 19.963 254.666 20.0401 254.812 20.1943C254.968 20.3382 255.046 20.5849 255.046 20.9344V28.6133C255.046 29.4151 255.187 30.0216 255.469 30.4328C255.75 30.844 256.219 31.0495 256.876 31.0495C257.481 31.0495 258.055 30.8028 258.597 30.3094C259.14 29.8057 259.572 29.1375 259.896 28.3049C260.229 27.4722 260.396 26.5831 260.396 25.6373V23.124H258.722C258.472 23.124 258.279 23.0829 258.144 23.0006C258.008 22.9081 257.904 22.7488 257.831 22.5226C257.768 22.2965 257.737 21.9675 257.737 21.5358C257.737 21.104 257.768 20.7751 257.831 20.5489C257.904 20.3228 258.008 20.1686 258.144 20.0863C258.279 20.0041 258.472 19.963 258.722 19.963H263.321Z" fill="#364F6B"/>
<path d="M281.546 19.6238C282.213 19.6238 282.688 19.7009 282.969 19.8551C283.251 19.999 283.392 20.2457 283.392 20.5952V23.8487C283.392 24.1982 283.277 24.45 283.047 24.6042C282.828 24.7481 282.463 24.8201 281.952 24.8201C281.4 24.8201 281.019 24.7122 280.811 24.4963C280.195 23.8487 279.491 23.3912 278.699 23.124C277.906 22.8464 276.988 22.7076 275.945 22.7076C275.33 22.7076 274.845 22.8156 274.491 23.0315C274.147 23.2473 273.974 23.5352 273.974 23.8949C273.974 24.3267 274.36 24.6351 275.132 24.8201C275.539 24.9229 276.232 25.0206 277.213 25.1131C278.182 25.2262 278.985 25.3392 279.622 25.4523C280.268 25.5654 280.878 25.735 281.452 25.9611C282.286 26.3004 282.938 26.7732 283.407 27.3797C283.877 27.9862 284.111 28.788 284.111 29.7852C284.111 30.7617 283.866 31.6098 283.376 32.3294C282.896 33.0387 282.187 33.5886 281.249 33.9792C280.32 34.3596 279.199 34.5498 277.885 34.5498C276.436 34.5498 275.09 34.1848 273.849 33.455V33.5783C273.849 33.9278 273.698 34.1745 273.396 34.3185C273.093 34.4727 272.608 34.5498 271.941 34.5498C271.273 34.5498 270.799 34.4727 270.517 34.3185C270.236 34.1745 270.095 33.9278 270.095 33.5783V30.1398C270.095 29.8006 270.215 29.5539 270.455 29.3997C270.705 29.2455 271.086 29.1684 271.597 29.1684C272.233 29.1684 272.666 29.3123 272.895 29.6001C273.417 30.2477 274.084 30.7206 274.897 31.0187C275.711 31.3168 276.602 31.4659 277.572 31.4659C279.241 31.4659 280.075 31.0393 280.075 30.1861C280.075 29.9291 279.955 29.7235 279.715 29.5693C279.486 29.4151 279.142 29.2866 278.683 29.1838C278.422 29.1324 277.817 29.0399 276.868 28.9062C275.815 28.7829 274.908 28.6441 274.147 28.4899C273.396 28.3255 272.713 28.0736 272.097 27.7344C270.658 26.9531 269.939 25.7196 269.939 24.0337C269.939 23.1394 270.184 22.3581 270.674 21.69C271.164 21.0218 271.837 20.513 272.692 20.1634C273.557 19.8037 274.527 19.6238 275.601 19.6238C277.176 19.6238 278.574 19.999 279.794 20.7494V20.5952C279.794 20.2457 279.919 19.999 280.169 19.8551C280.43 19.7009 280.889 19.6238 281.546 19.6238Z" fill="#364F6B"/>
<path d="M32.8503 25.0332C34.517 23.6574 35.5769 21.5909 35.5769 19.2804C35.5769 16.97 34.517 14.9036 32.8503 13.5278C33.0413 13.4366 33.2251 13.3376 33.4003 13.2304C34.5058 12.5528 35.8107 12.1615 37.2083 12.1615C41.197 12.1615 44.4305 15.3488 44.4305 19.2804C44.4305 23.2121 41.197 26.3993 37.2083 26.3993C35.8107 26.3993 34.5058 26.008 33.4003 25.3305C33.2251 25.2233 33.0413 25.1243 32.8503 25.0332Z" fill="url(#paint0_linear_3_38)"/>
<path d="M30.8445 20.4012C31.59 18.3883 31.4597 16.0763 30.2877 14.0754C29.1157 12.0745 27.1495 10.8072 25.0082 10.4372C25.1274 10.2642 25.2364 10.0879 25.3336 9.90868C25.9473 8.77704 26.8789 7.79503 28.0893 7.10621C31.5437 5.14037 35.9608 6.30699 37.9551 9.71192C39.9495 13.1169 38.766 17.4708 35.3115 19.4366C34.1012 20.1254 32.7726 20.4296 31.4715 20.3878C31.2655 20.3811 31.0561 20.3861 30.8445 20.4012Z" fill="url(#paint1_linear_3_38)"/>
<path d="M26.7573 17.3783C26.382 15.2676 25.0963 13.3296 23.0664 12.1744C21.0364 11.0191 18.6909 10.8907 16.6488 11.6256C16.6643 11.417 16.6692 11.2106 16.6624 11.0075C16.62 9.72499 16.9286 8.41541 17.6274 7.22233C19.6219 3.8174 24.0389 2.65078 27.4933 4.61662C30.9475 6.58246 32.1312 10.9363 30.1367 14.3413C29.4379 15.5343 28.4417 16.4526 27.2936 17.0576C27.1119 17.1534 26.933 17.2608 26.7573 17.3783Z" fill="url(#paint2_linear_3_38)"/>
<path d="M21.6841 16.7747C20.2884 15.1318 18.1919 14.0871 15.8479 14.0871C13.5038 14.0871 11.4074 15.1318 10.0117 16.7747C9.91923 16.5864 9.81882 16.4053 9.70999 16.2326C9.02261 15.1429 8.62561 13.8567 8.62561 12.4791C8.62561 8.54736 11.8591 5.36009 15.8479 5.36009C19.8366 5.36009 23.0701 8.54736 23.0701 12.4791C23.0701 13.8567 22.6731 15.1429 21.9858 16.2326C21.8769 16.4053 21.7765 16.5864 21.6841 16.7747Z" fill="url(#paint3_linear_3_38)"/>
<path d="M16.9839 18.7521C14.9417 18.0172 12.5962 18.1457 10.5662 19.3008C8.53624 20.4561 7.25063 22.3941 6.87526 24.5047C6.69968 24.3872 6.52081 24.2799 6.33902 24.1841C5.19096 23.5791 4.19469 22.6608 3.49588 21.4678C1.5015 18.0628 2.68505 13.7089 6.13941 11.7431C9.59376 9.77722 14.0108 10.9438 16.0053 14.3488C16.7041 15.5418 17.0127 16.8514 16.9701 18.1339C16.9634 18.337 16.9684 18.5434 16.9839 18.7521Z" fill="url(#paint4_linear_3_38)"/>
<path d="M13.9158 22.7811C11.7744 23.1511 9.80828 24.4183 8.63628 26.4192C7.46428 28.4201 7.334 30.7321 8.07956 32.745C7.8679 32.7297 7.65847 32.7249 7.45244 32.7314C6.1513 32.7734 4.82272 32.4692 3.61234 31.7804C0.157982 29.8145 -1.02557 25.4607 0.968805 22.0557C2.96317 18.6508 7.38024 17.4841 10.8346 19.45C12.045 20.1388 12.9766 21.1208 13.5903 22.2524C13.6875 22.4316 13.7966 22.6079 13.9158 22.7811Z" fill="url(#paint5_linear_3_38)"/>
<path d="M13.3022 27.7821C11.6355 29.1579 10.5756 31.2243 10.5756 33.5347C10.5756 35.8453 11.6355 37.9117 13.3022 39.2875C13.1112 39.3786 12.9274 39.4776 12.7523 39.5849C11.6468 40.2624 10.3419 40.6537 8.94424 40.6537C4.9555 40.6537 1.72198 37.4664 1.72198 33.5347C1.72198 29.603 4.9555 26.4158 8.94424 26.4158C10.3419 26.4158 11.6468 26.8071 12.7523 27.4847C12.9274 27.592 13.1112 27.6909 13.3022 27.7821Z" fill="url(#paint6_linear_3_38)"/>
<path d="M15.3076 32.4153C14.562 34.4282 14.6923 36.7401 15.8643 38.741C17.0363 40.7421 19.0025 42.0092 21.1437 42.3792C21.0245 42.5524 20.9156 42.7287 20.8184 42.9079C20.2047 44.0395 19.273 45.0214 18.0627 45.7103C14.6083 47.6762 10.1912 46.5095 8.19687 43.1046C6.20248 39.6996 7.38605 35.3458 10.8404 33.3799C12.0508 32.6911 13.3794 32.3868 14.6805 32.4288C14.8865 32.4354 15.0959 32.4305 15.3076 32.4153Z" fill="url(#paint7_linear_3_38)"/>
<path d="M19.3949 35.4395C19.7703 37.5501 21.0559 39.4882 23.0859 40.6433C25.1159 41.7986 27.4615 41.927 29.5036 41.1921C29.4881 41.4008 29.4832 41.6071 29.4899 41.8103C29.5324 43.0928 29.2238 44.4024 28.525 45.5954C26.5306 49.0004 22.1136 50.167 18.6592 48.2011C15.2047 46.2353 14.0212 41.8814 16.0157 38.4764C16.7145 37.2834 17.7107 36.3651 18.8587 35.7601C19.0405 35.6643 19.2194 35.5568 19.3949 35.4395Z" fill="url(#paint8_linear_3_38)"/>
<path d="M24.4686 36.0442C25.8643 37.6871 27.9607 38.7318 30.3048 38.7318C32.6489 38.7318 34.7453 37.6871 36.1411 36.0442C36.2334 36.2325 36.3338 36.4137 36.4427 36.5862C37.1301 37.6759 37.5271 38.9622 37.5271 40.3399C37.5271 44.2716 34.2936 47.4588 30.3048 47.4588C26.316 47.4588 23.0826 44.2716 23.0826 40.3399C23.0826 38.9622 23.4795 37.6759 24.1669 36.5862C24.2758 36.4137 24.3762 36.2325 24.4686 36.0442Z" fill="url(#paint9_linear_3_38)"/>
<path d="M29.1691 34.0675C31.2112 34.8024 33.5567 34.6739 35.5867 33.5188C37.6166 32.3636 38.9022 30.4255 39.2776 28.3149C39.4531 28.4322 39.632 28.5397 39.8138 28.6355C40.962 29.2405 41.9582 30.1588 42.657 31.3518C44.6515 34.7568 43.4678 39.1107 40.0135 41.0766C36.5591 43.0424 32.1421 41.8758 30.1477 38.4708C29.4489 37.2778 29.1402 35.9682 29.1827 34.6857C29.1895 34.4826 29.1846 34.2762 29.1691 34.0675Z" fill="url(#paint10_linear_3_38)"/>
<path d="M37.5209 26.3929C37.5195 26.3954 37.518 26.3979 37.5165 26.4004C36.3446 28.4013 34.3785 29.6686 32.2372 30.0386C32.3563 30.2117 32.4653 30.388 32.5625 30.5671C33.1763 31.6988 34.1079 32.6808 35.3182 33.3696C38.7726 35.3355 43.1896 34.1688 45.1841 30.7639C46.8938 27.8447 46.2679 24.2282 43.8778 22.0168C42.8278 24.5007 40.3912 26.2724 37.5209 26.3929Z" fill="url(#paint11_linear_3_38)"/>
<defs>
<linearGradient id="paint0_linear_3_38" x1="33.7545" y1="12.1615" x2="33.7545" y2="26.3993" gradientUnits="userSpaceOnUse">
<stop stop-color="#364F6B"/>
<stop offset="1" stop-color="#3FC1C9"/>
</linearGradient>
<linearGradient id="paint1_linear_3_38" x1="25.0983" y1="8.80836" x2="32.1656" y2="21.227" gradientUnits="userSpaceOnUse">
<stop stop-color="#364F6B"/>
<stop offset="1" stop-color="#3FC1C9"/>
</linearGradient>
<linearGradient id="paint2_linear_3_38" x1="15.9006" y1="10.1706" x2="28.3192" y2="17.4444" gradientUnits="userSpaceOnUse">
<stop stop-color="#364F6B"/>
<stop offset="1" stop-color="#3FC1C9"/>
</linearGradient>
<linearGradient id="paint3_linear_3_38" x1="8.62561" y1="15.8833" x2="23.0701" y2="15.8833" gradientUnits="userSpaceOnUse">
<stop stop-color="#364F6B"/>
<stop offset="1" stop-color="#3FC1C9"/>
</linearGradient>
<linearGradient id="paint4_linear_3_38" x1="5.22274" y1="24.4159" x2="17.6413" y2="17.142" gradientUnits="userSpaceOnUse">
<stop stop-color="#364F6B"/>
<stop offset="1" stop-color="#3FC1C9"/>
</linearGradient>
<linearGradient id="paint5_linear_3_38" x1="6.60336" y1="33.4825" x2="13.6707" y2="21.0639" gradientUnits="userSpaceOnUse">
<stop stop-color="#364F6B"/>
<stop offset="1" stop-color="#3FC1C9"/>
</linearGradient>
<linearGradient id="paint6_linear_3_38" x1="12.398" y1="40.6537" x2="12.398" y2="26.4158" gradientUnits="userSpaceOnUse">
<stop stop-color="#364F6B"/>
<stop offset="1" stop-color="#3FC1C9"/>
</linearGradient>
<linearGradient id="paint7_linear_3_38" x1="21.0536" y1="44.0082" x2="13.9863" y2="31.5896" gradientUnits="userSpaceOnUse">
<stop stop-color="#364F6B"/>
<stop offset="1" stop-color="#3FC1C9"/>
</linearGradient>
<linearGradient id="paint8_linear_3_38" x1="30.2518" y1="42.6472" x2="17.8332" y2="35.3732" gradientUnits="userSpaceOnUse">
<stop stop-color="#364F6B"/>
<stop offset="1" stop-color="#3FC1C9"/>
</linearGradient>
<linearGradient id="paint9_linear_3_38" x1="37.5271" y1="36.9355" x2="23.0826" y2="36.9355" gradientUnits="userSpaceOnUse">
<stop stop-color="#364F6B"/>
<stop offset="1" stop-color="#3FC1C9"/>
</linearGradient>
<linearGradient id="paint10_linear_3_38" x1="40.9302" y1="28.4037" x2="28.5116" y2="35.6776" gradientUnits="userSpaceOnUse">
<stop stop-color="#364F6B"/>
<stop offset="1" stop-color="#3FC1C9"/>
</linearGradient>
<linearGradient id="paint11_linear_3_38" x1="39.5495" y1="19.3371" x2="32.4822" y2="31.7557" gradientUnits="userSpaceOnUse">
<stop stop-color="#364F6B"/>
<stop offset="1" stop-color="#3FC1C9"/>
</linearGradient>
</defs>
</svg>
